<svg width="40px" height="40px" viewBox="0 0 40 40" version="1.1" xmlns="http://www.w3.org/2000/svg"
     xmlns:xlink="http://www.w3.org/1999/xlink">
  <title>shower</title>
  <defs>
    <path
      d="M17.28,0 L357.72,0 C367.26348,3.21521447e-14 375,7.73651952 375,17.28 L375,1474.72 C375,1484.26348 367.26348,1492 357.72,1492 L17.28,1492 C7.73651952,1492 1.16873928e-15,1484.26348 0,1474.72 L0,17.28 C-1.16873928e-15,7.73651952 7.73651952,-2.66686005e-14 17.28,0 Z"
      id="path-1"></path>
    <filter x="-6.4%" y="-1.6%" width="112.5%" height="103.2%" filterUnits="objectBoundingBox" id="filter-3">
      <feOffset dx="6" dy="6" in="SourceAlpha" result="shadowOffsetOuter1"></feOffset>
      <feGaussianBlur stdDeviation="4.5" in="shadowOffsetOuter1" result="shadowBlurOuter1"></feGaussianBlur>
      <feComposite in="shadowBlurOuter1" in2="SourceAlpha" operator="out" result="shadowBlurOuter1"></feComposite>
      <feColorMatrix values="0 0 0 0 0   0 0 0 0 0   0 0 0 0 0  0 0 0 0.0520104895 0" type="matrix"
                     in="shadowBlurOuter1" result="shadowMatrixOuter1"></feColorMatrix>
      <feOffset dx="-6" dy="-6" in="SourceAlpha" result="shadowOffsetOuter2"></feOffset>
      <feGaussianBlur stdDeviation="5" in="shadowOffsetOuter2" result="shadowBlurOuter2"></feGaussianBlur>
      <feComposite in="shadowBlurOuter2" in2="SourceAlpha" operator="out" result="shadowBlurOuter2"></feComposite>
      <feColorMatrix values="0 0 0 0 1   0 0 0 0 1   0 0 0 0 1  0 0 0 1 0" type="matrix" in="shadowBlurOuter2"
                     result="shadowMatrixOuter2"></feColorMatrix>
      <feMerge>
        <feMergeNode in="shadowMatrixOuter1"></feMergeNode>
        <feMergeNode in="shadowMatrixOuter2"></feMergeNode>
      </feMerge>
    </filter>
    <rect id="path-4" x="0" y="0" width="156" height="104" rx="8"></rect>
    <filter x="-7.1%" y="-10.6%" width="116.7%" height="125.0%" filterUnits="objectBoundingBox" id="filter-5">
      <feOffset dx="5" dy="5" in="SourceAlpha" result="shadowOffsetOuter1"></feOffset>
      <feGaussianBlur stdDeviation="2.5" in="shadowOffsetOuter1" result="shadowBlurOuter1"></feGaussianBlur>
      <feColorMatrix values="0 0 0 0 0.431372549   0 0 0 0 0.431372549   0 0 0 0 0.431372549  0 0 0 0.5 0" type="matrix"
                     in="shadowBlurOuter1" result="shadowMatrixOuter1"></feColorMatrix>
      <feOffset dx="-1" dy="-1" in="SourceAlpha" result="shadowOffsetOuter2"></feOffset>
      <feGaussianBlur stdDeviation="2.5" in="shadowOffsetOuter2" result="shadowBlurOuter2"></feGaussianBlur>
      <feColorMatrix values="0 0 0 0 1   0 0 0 0 1   0 0 0 0 1  0 0 0 1 0" type="matrix" in="shadowBlurOuter2"
                     result="shadowMatrixOuter2"></feColorMatrix>
      <feMerge>
        <feMergeNode in="shadowMatrixOuter1"></feMergeNode>
        <feMergeNode in="shadowMatrixOuter2"></feMergeNode>
      </feMerge>
    </filter>
  </defs>
  <g id="All-Pages" stroke="none" stroke-width="1" fill="none" fill-rule="evenodd">
    <g id="Step-3" transform="translate(-76.000000, -991.000000)">
      <g id="Nav-Bar">
        <mask id="mask-2" fill="white">
          <use xlink:href="#path-1"></use>
        </mask>
        <g id="Mask-Copy">
          <use fill="black" fill-opacity="1" filter="url(#filter-3)" xlink:href="#path-1"></use>
          <path stroke="#FFFFFF" stroke-width="1"
                d="M357.72,0.5 C362.353669,0.5 366.548669,2.37816547 369.585252,5.41474821 C372.621835,8.45133095 374.5,12.6463309 374.5,17.28 L374.5,17.28 L374.5,1474.72 C374.5,1479.35367 372.621835,1483.54867 369.585252,1486.58525 C366.548669,1489.62183 362.353669,1491.5 357.72,1491.5 L357.72,1491.5 L17.28,1491.5 C12.6463309,1491.5 8.45133095,1489.62183 5.41474821,1486.58525 C2.37816547,1483.54867 0.5,1479.35367 0.5,1474.72 L0.5,1474.72 L0.5,17.28 C0.5,12.6463309 2.37816547,8.45133095 5.41474821,5.41474821 C8.45133095,2.37816547 12.6463309,0.5 17.28,0.5 L17.28,0.5 Z"
                stroke-linejoin="square" fill="#F5F5F5" fill-rule="evenodd"></path>
        </g>
      </g>
      <g id="Group-8" transform="translate(16.000000, 931.000000)" fill-rule="nonzero">
        <g id="Button" transform="translate(2.000000, 39.000000)">
          <g id="Rectangle">
            <use fill="black" fill-opacity="1" filter="url(#filter-5)" xlink:href="#path-4"></use>
            <use fill="#EEEEEF" xlink:href="#path-4"></use>
          </g>
          <g id="shower" transform="translate(58.000000, 21.000000)" fill="#888585">
            <path
              d="M29.0962963,5.92592593 L24.237037,5.92592593 L23.2518519,8.88888889 L30.0814815,8.88888889 L29.0962963,5.92592593 Z M27.4074074,0 L27.4074074,4.44444444 L29.6296296,4.44444444 C29.9615943,4.42711743 30.2644489,4.63305856 30.3703704,4.94814815 L31.8518519,9.39259259 C31.9263672,9.61857258 31.8877864,9.86659206 31.7481481,10.0592593 C31.6024374,10.2644432 31.3625185,10.3816129 31.1111111,10.3703704 L22.2222222,10.3703704 C21.9838094,10.3692679 21.7605006,10.2534782 21.6222222,10.0592593 C21.4825839,9.86659206 21.4440031,9.61857258 21.5185185,9.39259259 L23,4.94814815 C23.1019053,4.64643576 23.3852475,4.4436224 23.7037037,4.44444444 L25.9259259,4.44444444 L25.9259259,0 L13.3333333,0 L13.3333333,35.5555556 L40,35.5555556 L40,0 L27.4074074,0 Z M16.2962963,20 C16.2962963,20.4090998 15.9646554,20.7407407 15.5555556,20.7407407 C15.1464557,20.7407407 14.8148148,20.4090998 14.8148148,20 L14.8148148,15.5555556 C14.8148148,15.1464557 15.1464557,14.8148148 15.5555556,14.8148148 C15.9646554,14.8148148 16.2962963,15.1464557 16.2962963,15.5555556 L16.2962963,20 Z M22.2222222,22.2222222 C21.8131224,22.2222222 21.4814815,21.8905813 21.4814815,21.4814815 C21.4814815,21.0723817 21.8131224,20.7407407 22.2222222,20.7407407 C22.631322,20.7407407 22.962963,21.0723817 22.962963,21.4814815 C22.962963,21.8905813 22.631322,22.2222222 22.2222222,22.2222222 Z M22.2222222,19.2592593 C21.8131224,19.2592593 21.4814815,18.9276183 21.4814815,18.5185185 C21.4814815,18.1094187 21.8131224,17.7777778 22.2222222,17.7777778 C22.631322,17.7777778 22.962963,18.1094187 22.962963,18.5185185 C22.962963,18.9276183 22.631322,19.2592593 22.2222222,19.2592593 Z M22.2222222,16.2962963 C21.8131224,16.2962963 21.4814815,15.9646554 21.4814815,15.5555556 C21.4814815,15.1464557 21.8131224,14.8148148 22.2222222,14.8148148 C22.631322,14.8148148 22.962963,15.1464557 22.962963,15.5555556 C22.962963,15.9646554 22.631322,16.2962963 22.2222222,16.2962963 Z M22.2222222,13.3333333 C21.8131224,13.3333333 21.4814815,13.0016924 21.4814815,12.5925926 C21.4814815,12.1834928 21.8131224,11.8518519 22.2222222,11.8518519 C22.631322,11.8518519 22.962963,12.1834928 22.962963,12.5925926 C22.962963,13.0016924 22.631322,13.3333333 22.2222222,13.3333333 Z M26.6666667,22.2222222 C26.2575669,22.2222222 25.9259259,21.8905813 25.9259259,21.4814815 C25.9259259,21.0723817 26.2575669,20.7407407 26.6666667,20.7407407 C27.0757665,20.7407407 27.4074074,21.0723817 27.4074074,21.4814815 C27.4074074,21.8905813 27.0757665,22.2222222 26.6666667,22.2222222 Z M26.6666667,19.2592593 C26.2575669,19.2592593 25.9259259,18.9276183 25.9259259,18.5185185 C25.9259259,18.1094187 26.2575669,17.7777778 26.6666667,17.7777778 C27.0757665,17.7777778 27.4074074,18.1094187 27.4074074,18.5185185 C27.4074074,18.9276183 27.0757665,19.2592593 26.6666667,19.2592593 Z M26.6666667,16.2962963 C26.2575669,16.2962963 25.9259259,15.9646554 25.9259259,15.5555556 C25.9259259,15.1464557 26.2575669,14.8148148 26.6666667,14.8148148 C27.0757665,14.8148148 27.4074074,15.1464557 27.4074074,15.5555556 C27.4074074,15.9646554 27.0757665,16.2962963 26.6666667,16.2962963 Z M26.6666667,13.3333333 C26.2575669,13.3333333 25.9259259,13.0016924 25.9259259,12.5925926 C25.9259259,12.1834928 26.2575669,11.8518519 26.6666667,11.8518519 C27.0757665,11.8518519 27.4074074,12.1834928 27.4074074,12.5925926 C27.4074074,13.0016924 27.0757665,13.3333333 26.6666667,13.3333333 Z M31.1111111,22.2222222 C30.7020113,22.2222222 30.3703704,21.8905813 30.3703704,21.4814815 C30.3703704,21.0723817 30.7020113,20.7407407 31.1111111,20.7407407 C31.5202109,20.7407407 31.8518519,21.0723817 31.8518519,21.4814815 C31.8518519,21.8905813 31.5202109,22.2222222 31.1111111,22.2222222 Z M31.1111111,19.2592593 C30.7020113,19.2592593 30.3703704,18.9276183 30.3703704,18.5185185 C30.3703704,18.1094187 30.7020113,17.7777778 31.1111111,17.7777778 C31.5202109,17.7777778 31.8518519,18.1094187 31.8518519,18.5185185 C31.8518519,18.9276183 31.5202109,19.2592593 31.1111111,19.2592593 Z M31.1111111,16.2962963 C30.7020113,16.2962963 30.3703704,15.9646554 30.3703704,15.5555556 C30.3703704,15.1464557 30.7020113,14.8148148 31.1111111,14.8148148 C31.5202109,14.8148148 31.8518519,15.1464557 31.8518519,15.5555556 C31.8518519,15.9646554 31.5202109,16.2962963 31.1111111,16.2962963 Z M31.1111111,13.3333333 C30.7020113,13.3333333 30.3703704,13.0016924 30.3703704,12.5925926 C30.3703704,12.1834928 30.7020113,11.8518519 31.1111111,11.8518519 C31.5202109,11.8518519 31.8518519,12.1834928 31.8518519,12.5925926 C31.8518519,13.0016924 31.5202109,13.3333333 31.1111111,13.3333333 Z M38.5185185,20 C38.5185185,20.4090998 38.1868776,20.7407407 37.7777778,20.7407407 C37.368678,20.7407407 37.037037,20.4090998 37.037037,20 L37.037037,15.5555556 C37.037037,15.1464557 37.368678,14.8148148 37.7777778,14.8148148 C38.1868776,14.8148148 38.5185185,15.1464557 38.5185185,15.5555556 L38.5185185,20 Z M0,0 L0,35.5555556 L11.8518519,35.5555556 L11.8518519,0 L0,0 Z M0,37.037037 L0,40 L11.8518519,40 L11.8518519,37.037037 L0,37.037037 Z M13.3333333,37.037037 L13.3333333,40 L40,40 L40,37.037037 L13.3333333,37.037037 Z"
              id="Shape"></path>
          </g>
        </g>
      </g>
    </g>
  </g>
</svg>
