<svg width="29px" height="29px" viewBox="0 0 29 29" version="1.1" xmlns="http://www.w3.org/2000/svg"
     xmlns:xlink="http://www.w3.org/1999/xlink">
  <title>target (7)</title>
  <defs>
    <path
      d="M17.28,0 L357.72,0 C367.26348,2.8599431e-14 375,7.73651952 375,17.28 L375,685.72 C375,695.26348 367.26348,703 357.72,703 L17.28,703 C7.73651952,703 6.11883762e-14,695.26348 0,685.72 L0,17.28 C-4.72145296e-15,7.73651952 7.73651952,-3.02213142e-14 17.28,0 Z"
      id="path-1"></path>
    <filter x="-6.4%" y="-3.4%" width="112.5%" height="106.7%" filterUnits="objectBoundingBox" id="filter-3">
      <feOffset dx="6" dy="6" in="SourceAlpha" result="shadowOffsetOuter1"></feOffset>
      <feGaussianBlur stdDeviation="4.5" in="shadowOffsetOuter1" result="shadowBlurOuter1"></feGaussianBlur>
      <feComposite in="shadowBlurOuter1" in2="SourceAlpha" operator="out" result="shadowBlurOuter1"></feComposite>
      <feColorMatrix values="0 0 0 0 0   0 0 0 0 0   0 0 0 0 0  0 0 0 0.0520104895 0" type="matrix"
                     in="shadowBlurOuter1" result="shadowMatrixOuter1"></feColorMatrix>
      <feOffset dx="-6" dy="-6" in="SourceAlpha" result="shadowOffsetOuter2"></feOffset>
      <feGaussianBlur stdDeviation="5" in="shadowOffsetOuter2" result="shadowBlurOuter2"></feGaussianBlur>
      <feComposite in="shadowBlurOuter2" in2="SourceAlpha" operator="out" result="shadowBlurOuter2"></feComposite>
      <feColorMatrix values="0 0 0 0 1   0 0 0 0 1   0 0 0 0 1  0 0 0 1 0" type="matrix" in="shadowBlurOuter2"
                     result="shadowMatrixOuter2"></feColorMatrix>
      <feMerge>
        <feMergeNode in="shadowMatrixOuter1"></feMergeNode>
        <feMergeNode in="shadowMatrixOuter2"></feMergeNode>
      </feMerge>
    </filter>
    <path
      d="M17.28,0 L357.72,0 C367.26348,2.8599431e-14 375,7.73651952 375,17.28 L375,685.72 C375,695.26348 367.26348,703 357.72,703 L17.28,703 C7.73651952,703 6.11883762e-14,695.26348 0,685.72 L0,17.28 C-4.72145296e-15,7.73651952 7.73651952,-3.02213142e-14 17.28,0 Z"
      id="path-4"></path>
    <filter x="-6.4%" y="-3.4%" width="112.5%" height="106.7%" filterUnits="objectBoundingBox" id="filter-6">
      <feOffset dx="6" dy="6" in="SourceAlpha" result="shadowOffsetOuter1"></feOffset>
      <feGaussianBlur stdDeviation="4.5" in="shadowOffsetOuter1" result="shadowBlurOuter1"></feGaussianBlur>
      <feComposite in="shadowBlurOuter1" in2="SourceAlpha" operator="out" result="shadowBlurOuter1"></feComposite>
      <feColorMatrix values="0 0 0 0 0   0 0 0 0 0   0 0 0 0 0  0 0 0 0.0520104895 0" type="matrix"
                     in="shadowBlurOuter1" result="shadowMatrixOuter1"></feColorMatrix>
      <feOffset dx="-6" dy="-6" in="SourceAlpha" result="shadowOffsetOuter2"></feOffset>
      <feGaussianBlur stdDeviation="5" in="shadowOffsetOuter2" result="shadowBlurOuter2"></feGaussianBlur>
      <feComposite in="shadowBlurOuter2" in2="SourceAlpha" operator="out" result="shadowBlurOuter2"></feComposite>
      <feColorMatrix values="0 0 0 0 1   0 0 0 0 1   0 0 0 0 1  0 0 0 1 0" type="matrix" in="shadowBlurOuter2"
                     result="shadowMatrixOuter2"></feColorMatrix>
      <feMerge>
        <feMergeNode in="shadowMatrixOuter1"></feMergeNode>
        <feMergeNode in="shadowMatrixOuter2"></feMergeNode>
      </feMerge>
    </filter>
    <path
      d="M17.28,0 L357.72,0 C367.26348,1.79960476e-15 375,7.73651952 375,17.28 L375,1589.72 C375,1599.26348 367.26348,1607 357.72,1607 L17.28,1607 C7.73651952,1607 1.16873928e-15,1599.26348 0,1589.72 L0,17.28 C-1.16873928e-15,7.73651952 7.73651952,-2.66686005e-14 17.28,0 Z"
      id="path-7"></path>
    <filter x="-6.4%" y="-1.5%" width="112.5%" height="102.9%" filterUnits="objectBoundingBox" id="filter-9">
      <feOffset dx="6" dy="6" in="SourceAlpha" result="shadowOffsetOuter1"></feOffset>
      <feGaussianBlur stdDeviation="4.5" in="shadowOffsetOuter1" result="shadowBlurOuter1"></feGaussianBlur>
      <feComposite in="shadowBlurOuter1" in2="SourceAlpha" operator="out" result="shadowBlurOuter1"></feComposite>
      <feColorMatrix values="0 0 0 0 0   0 0 0 0 0   0 0 0 0 0  0 0 0 0.0520104895 0" type="matrix"
                     in="shadowBlurOuter1" result="shadowMatrixOuter1"></feColorMatrix>
      <feOffset dx="-6" dy="-6" in="SourceAlpha" result="shadowOffsetOuter2"></feOffset>
      <feGaussianBlur stdDeviation="5" in="shadowOffsetOuter2" result="shadowBlurOuter2"></feGaussianBlur>
      <feComposite in="shadowBlurOuter2" in2="SourceAlpha" operator="out" result="shadowBlurOuter2"></feComposite>
      <feColorMatrix values="0 0 0 0 1   0 0 0 0 1   0 0 0 0 1  0 0 0 1 0" type="matrix" in="shadowBlurOuter2"
                     result="shadowMatrixOuter2"></feColorMatrix>
      <feMerge>
        <feMergeNode in="shadowMatrixOuter1"></feMergeNode>
        <feMergeNode in="shadowMatrixOuter2"></feMergeNode>
      </feMerge>
    </filter>
    <linearGradient x1="79.7152778%" y1="49.7586998%" x2="113.4375%" y2="52.6348251%" id="linearGradient-10">
      <stop stop-color="#123D65" stop-opacity="0" offset="0%"></stop>
      <stop stop-color="#123D65" stop-opacity="0.264641608" offset="100%"></stop>
    </linearGradient>
    <rect id="path-11" x="0" y="0" width="342" height="54" rx="8"></rect>
    <filter x="-3.8%" y="-24.1%" width="107.6%" height="148.1%" filterUnits="objectBoundingBox" id="filter-12">
      <feGaussianBlur stdDeviation="4" in="SourceAlpha" result="shadowBlurInner1"></feGaussianBlur>
      <feOffset dx="6" dy="6" in="shadowBlurInner1" result="shadowOffsetInner1"></feOffset>
      <feComposite in="shadowOffsetInner1" in2="SourceAlpha" operator="arithmetic" k2="-1" k3="1"
                   result="shadowInnerInner1"></feComposite>
      <feColorMatrix values="0 0 0 0 0.0705882353   0 0 0 0 0.180392157   0 0 0 0 0.396078431  0 0 0 0.08 0"
                     type="matrix" in="shadowInnerInner1" result="shadowMatrixInner1"></feColorMatrix>
      <feGaussianBlur stdDeviation="10" in="SourceAlpha" result="shadowBlurInner2"></feGaussianBlur>
      <feOffset dx="-6" dy="-6" in="shadowBlurInner2" result="shadowOffsetInner2"></feOffset>
      <feComposite in="shadowOffsetInner2" in2="SourceAlpha" operator="arithmetic" k2="-1" k3="1"
                   result="shadowInnerInner2"></feComposite>
      <feColorMatrix values="0 0 0 0 1   0 0 0 0 1   0 0 0 0 1  0 0 0 0.5 0" type="matrix" in="shadowInnerInner2"
                     result="shadowMatrixInner2"></feColorMatrix>
      <feMerge>
        <feMergeNode in="shadowMatrixInner1"></feMergeNode>
        <feMergeNode in="shadowMatrixInner2"></feMergeNode>
      </feMerge>
    </filter>
    <rect id="path-13" x="0" y="0" width="342" height="54" rx="8"></rect>
    <filter x="-3.8%" y="-24.1%" width="107.6%" height="148.1%" filterUnits="objectBoundingBox" id="filter-14">
      <feGaussianBlur stdDeviation="4" in="SourceAlpha" result="shadowBlurInner1"></feGaussianBlur>
      <feOffset dx="6" dy="6" in="shadowBlurInner1" result="shadowOffsetInner1"></feOffset>
      <feComposite in="shadowOffsetInner1" in2="SourceAlpha" operator="arithmetic" k2="-1" k3="1"
                   result="shadowInnerInner1"></feComposite>
      <feColorMatrix values="0 0 0 0 0.0705882353   0 0 0 0 0.180392157   0 0 0 0 0.396078431  0 0 0 0.08 0"
                     type="matrix" in="shadowInnerInner1" result="shadowMatrixInner1"></feColorMatrix>
      <feGaussianBlur stdDeviation="10" in="SourceAlpha" result="shadowBlurInner2"></feGaussianBlur>
      <feOffset dx="-6" dy="-6" in="shadowBlurInner2" result="shadowOffsetInner2"></feOffset>
      <feComposite in="shadowOffsetInner2" in2="SourceAlpha" operator="arithmetic" k2="-1" k3="1"
                   result="shadowInnerInner2"></feComposite>
      <feColorMatrix values="0 0 0 0 1   0 0 0 0 1   0 0 0 0 1  0 0 0 0.5 0" type="matrix" in="shadowInnerInner2"
                     result="shadowMatrixInner2"></feColorMatrix>
      <feMerge>
        <feMergeNode in="shadowMatrixInner1"></feMergeNode>
        <feMergeNode in="shadowMatrixInner2"></feMergeNode>
      </feMerge>
    </filter>
  </defs>
  <g id="All-Pages" stroke="none" stroke-width="1" fill="none" fill-rule="evenodd">
    <g id="Add-Property.Location-Step-1" transform="translate(-317.000000, -543.000000)">
      <g id="Nav-Bar" transform="translate(0.000000, 91.000000)">
        <mask id="mask-2" fill="white">
          <use xlink:href="#path-1"></use>
        </mask>
        <g id="Mask-Copy">
          <use fill="black" fill-opacity="1" filter="url(#filter-3)" xlink:href="#path-1"></use>
          <path stroke="#FFFFFF" stroke-width="1"
                d="M357.72,0.5 C362.353669,0.5 366.548669,2.37816547 369.585252,5.41474821 C372.621835,8.45133095 374.5,12.6463309 374.5,17.28 L374.5,17.28 L374.5,685.72 C374.5,690.353669 372.621835,694.548669 369.585252,697.585252 C366.548669,700.621835 362.353669,702.5 357.72,702.5 L357.72,702.5 L17.28,702.5 C12.6463309,702.5 8.45133095,700.621835 5.41474821,697.585252 C2.37816547,694.548669 0.5,690.353669 0.5,685.72 L0.5,685.72 L0.5,17.28 C0.5,12.6463309 2.37816547,8.45133095 5.41474821,5.41474821 C8.45133095,2.37816547 12.6463309,0.5 17.28,0.5 L17.28,0.5 Z"
                stroke-linejoin="square" fill="#F5F5F5" fill-rule="evenodd"></path>
        </g>
      </g>
      <g id="Nav-Bar" transform="translate(0.000000, 91.000000)">
        <mask id="mask-5" fill="white">
          <use xlink:href="#path-4"></use>
        </mask>
        <g id="Mask-Copy">
          <use fill="black" fill-opacity="1" filter="url(#filter-6)" xlink:href="#path-4"></use>
          <path stroke="#FFFFFF" stroke-width="1"
                d="M357.72,0.5 C362.353669,0.5 366.548669,2.37816547 369.585252,5.41474821 C372.621835,8.45133095 374.5,12.6463309 374.5,17.28 L374.5,17.28 L374.5,685.72 C374.5,690.353669 372.621835,694.548669 369.585252,697.585252 C366.548669,700.621835 362.353669,702.5 357.72,702.5 L357.72,702.5 L17.28,702.5 C12.6463309,702.5 8.45133095,700.621835 5.41474821,697.585252 C2.37816547,694.548669 0.5,690.353669 0.5,685.72 L0.5,685.72 L0.5,17.28 C0.5,12.6463309 2.37816547,8.45133095 5.41474821,5.41474821 C8.45133095,2.37816547 12.6463309,0.5 17.28,0.5 L17.28,0.5 Z"
                stroke-linejoin="square" fill="#F5F5F5" fill-rule="evenodd"></path>
        </g>
      </g>
      <g id="Nav-Bar">
        <mask id="mask-8" fill="white">
          <use xlink:href="#path-7"></use>
        </mask>
        <g id="Mask-Copy">
          <use fill="black" fill-opacity="1" filter="url(#filter-9)" xlink:href="#path-7"></use>
          <path stroke="#FFFFFF" stroke-width="1"
                d="M357.72,0.5 C362.353669,0.5 366.548669,2.37816547 369.585252,5.41474821 C372.621835,8.45133095 374.5,12.6463309 374.5,17.28 L374.5,17.28 L374.5,1589.72 C374.5,1594.35367 372.621835,1598.54867 369.585252,1601.58525 C366.548669,1604.62183 362.353669,1606.5 357.72,1606.5 L357.72,1606.5 L17.28,1606.5 C12.6463309,1606.5 8.45133095,1604.62183 5.41474821,1601.58525 C2.37816547,1598.54867 0.5,1594.35367 0.5,1589.72 L0.5,1589.72 L0.5,17.28 C0.5,12.6463309 2.37816547,8.45133095 5.41474821,5.41474821 C8.45133095,2.37816547 12.6463309,0.5 17.28,0.5 L17.28,0.5 Z"
                stroke-linejoin="square" fill="#F5F5F5" fill-rule="evenodd"></path>
        </g>
      </g>
      <g id="bg" transform="translate(16.000000, 530.000000)">
        <use fill="#FFFFFF" fill-rule="evenodd" xlink:href="#path-11"></use>
        <use fill="black" fill-opacity="1" filter="url(#filter-12)" xlink:href="#path-11"></use>
        <rect stroke="url(#linearGradient-10)" stroke-width="1" stroke-linejoin="square" x="0.5" y="0.5" width="341"
              height="53" rx="8"></rect>
      </g>
      <g id="bg" transform="translate(16.000000, 530.000000)">
        <use fill="#FFFFFF" fill-rule="evenodd" xlink:href="#path-13"></use>
        <use fill="black" fill-opacity="1" filter="url(#filter-14)" xlink:href="#path-13"></use>
        <rect stroke="url(#linearGradient-10)" stroke-width="1" stroke-linejoin="square" x="0.5" y="0.5" width="341"
              height="53" rx="8"></rect>
      </g>
      <g id="target-(7)" transform="translate(317.000000, 543.000000)" fill="#888585" fill-rule="nonzero">
        <path
          d="M14.5,9.22723902 C11.5868017,9.22723902 9.22730081,11.5868017 9.22730081,14.4999382 C9.22730081,17.4130747 11.5868017,19.7726992 14.5,19.7726992 C17.4131983,19.7726992 19.7726992,17.4131365 19.7726992,14.5 C19.7726992,11.5868635 17.4131365,9.22723902 14.5,9.22723902 Z M26.2845287,13.1817789 C25.6781247,7.68496849 21.3149697,3.32181346 15.8181593,2.71547128 L15.8181593,0 L13.1817789,0 L13.1817789,2.71547128 C7.68496849,3.32181346 3.32181346,7.68496849 2.71547128,13.1817789 L0,13.1817789 L0,15.8181593 L2.71547128,15.8181593 C3.32181346,21.3149697 7.68503028,25.6781247 13.1818407,26.2845287 L13.1818407,29 L15.8181593,29 L15.8181593,26.2845287 C21.3149697,25.6781247 25.6781247,21.3149697 26.2845287,15.8181593 L29,15.8181593 L29,13.1817789 L26.2845287,13.1817789 L26.2845287,13.1817789 Z M14.5,23.727239 C9.40525511,23.727239 5.27276098,19.5947449 5.27276098,14.5 C5.27276098,9.40525511 9.40525511,5.27276098 14.5,5.27276098 C19.5947449,5.27276098 23.727239,9.40519332 23.727239,14.5 C23.727239,19.5948067 19.5947449,23.727239 14.5,23.727239 Z"
          id="Shape"></path>
      </g>
    </g>
  </g>
</svg>
