<svg width="53px" height="50px" viewBox="0 0 53 50" version="1.1" xmlns="http://www.w3.org/2000/svg"
     xmlns:xlink="http://www.w3.org/1999/xlink">
  <title>rent (1)</title>
  <defs>
    <path
      d="M17.28,0 L357.72,0 C367.26348,2.8599431e-14 375,7.73651952 375,17.28 L375,685.72 C375,695.26348 367.26348,703 357.72,703 L17.28,703 C7.73651952,703 6.11883762e-14,695.26348 0,685.72 L0,17.28 C-4.72145296e-15,7.73651952 7.73651952,-3.02213142e-14 17.28,0 Z"
      id="path-1"></path>
    <filter x="-6.4%" y="-3.4%" width="112.5%" height="106.7%" filterUnits="objectBoundingBox" id="filter-3">
      <feOffset dx="6" dy="6" in="SourceAlpha" result="shadowOffsetOuter1"></feOffset>
      <feGaussianBlur stdDeviation="4.5" in="shadowOffsetOuter1" result="shadowBlurOuter1"></feGaussianBlur>
      <feComposite in="shadowBlurOuter1" in2="SourceAlpha" operator="out" result="shadowBlurOuter1"></feComposite>
      <feColorMatrix values="0 0 0 0 0   0 0 0 0 0   0 0 0 0 0  0 0 0 0.0520104895 0" type="matrix"
                     in="shadowBlurOuter1" result="shadowMatrixOuter1"></feColorMatrix>
      <feOffset dx="-6" dy="-6" in="SourceAlpha" result="shadowOffsetOuter2"></feOffset>
      <feGaussianBlur stdDeviation="5" in="shadowOffsetOuter2" result="shadowBlurOuter2"></feGaussianBlur>
      <feComposite in="shadowBlurOuter2" in2="SourceAlpha" operator="out" result="shadowBlurOuter2"></feComposite>
      <feColorMatrix values="0 0 0 0 1   0 0 0 0 1   0 0 0 0 1  0 0 0 1 0" type="matrix" in="shadowBlurOuter2"
                     result="shadowMatrixOuter2"></feColorMatrix>
      <feMerge>
        <feMergeNode in="shadowMatrixOuter1"></feMergeNode>
        <feMergeNode in="shadowMatrixOuter2"></feMergeNode>
      </feMerge>
    </filter>
    <path
      d="M17.28,0 L357.72,0 C367.26348,2.8599431e-14 375,7.73651952 375,17.28 L375,685.72 C375,695.26348 367.26348,703 357.72,703 L17.28,703 C7.73651952,703 6.11883762e-14,695.26348 0,685.72 L0,17.28 C-4.72145296e-15,7.73651952 7.73651952,-3.02213142e-14 17.28,0 Z"
      id="path-4"></path>
    <filter x="-6.4%" y="-3.4%" width="112.5%" height="106.7%" filterUnits="objectBoundingBox" id="filter-6">
      <feOffset dx="6" dy="6" in="SourceAlpha" result="shadowOffsetOuter1"></feOffset>
      <feGaussianBlur stdDeviation="4.5" in="shadowOffsetOuter1" result="shadowBlurOuter1"></feGaussianBlur>
      <feComposite in="shadowBlurOuter1" in2="SourceAlpha" operator="out" result="shadowBlurOuter1"></feComposite>
      <feColorMatrix values="0 0 0 0 0   0 0 0 0 0   0 0 0 0 0  0 0 0 0.0520104895 0" type="matrix"
                     in="shadowBlurOuter1" result="shadowMatrixOuter1"></feColorMatrix>
      <feOffset dx="-6" dy="-6" in="SourceAlpha" result="shadowOffsetOuter2"></feOffset>
      <feGaussianBlur stdDeviation="5" in="shadowOffsetOuter2" result="shadowBlurOuter2"></feGaussianBlur>
      <feComposite in="shadowBlurOuter2" in2="SourceAlpha" operator="out" result="shadowBlurOuter2"></feComposite>
      <feColorMatrix values="0 0 0 0 1   0 0 0 0 1   0 0 0 0 1  0 0 0 1 0" type="matrix" in="shadowBlurOuter2"
                     result="shadowMatrixOuter2"></feColorMatrix>
      <feMerge>
        <feMergeNode in="shadowMatrixOuter1"></feMergeNode>
        <feMergeNode in="shadowMatrixOuter2"></feMergeNode>
      </feMerge>
    </filter>
    <path
      d="M17.28,0 L357.72,0 C367.26348,-1.75310892e-15 375,7.73651952 375,17.28 L375,1349.72 C375,1359.26348 367.26348,1367 357.72,1367 L17.28,1367 C7.73651952,1367 1.16873928e-15,1359.26348 0,1349.72 L0,17.28 C-1.16873928e-15,7.73651952 7.73651952,-2.66686005e-14 17.28,0 Z"
      id="path-7"></path>
    <filter x="-6.4%" y="-1.8%" width="112.5%" height="103.4%" filterUnits="objectBoundingBox" id="filter-9">
      <feOffset dx="6" dy="6" in="SourceAlpha" result="shadowOffsetOuter1"></feOffset>
      <feGaussianBlur stdDeviation="4.5" in="shadowOffsetOuter1" result="shadowBlurOuter1"></feGaussianBlur>
      <feComposite in="shadowBlurOuter1" in2="SourceAlpha" operator="out" result="shadowBlurOuter1"></feComposite>
      <feColorMatrix values="0 0 0 0 0   0 0 0 0 0   0 0 0 0 0  0 0 0 0.0520104895 0" type="matrix"
                     in="shadowBlurOuter1" result="shadowMatrixOuter1"></feColorMatrix>
      <feOffset dx="-6" dy="-6" in="SourceAlpha" result="shadowOffsetOuter2"></feOffset>
      <feGaussianBlur stdDeviation="5" in="shadowOffsetOuter2" result="shadowBlurOuter2"></feGaussianBlur>
      <feComposite in="shadowBlurOuter2" in2="SourceAlpha" operator="out" result="shadowBlurOuter2"></feComposite>
      <feColorMatrix values="0 0 0 0 1   0 0 0 0 1   0 0 0 0 1  0 0 0 1 0" type="matrix" in="shadowBlurOuter2"
                     result="shadowMatrixOuter2"></feColorMatrix>
      <feMerge>
        <feMergeNode in="shadowMatrixOuter1"></feMergeNode>
        <feMergeNode in="shadowMatrixOuter2"></feMergeNode>
      </feMerge>
    </filter>
    <rect id="path-10" x="0" y="0" width="164" height="104" rx="8"></rect>
    <filter x="-6.7%" y="-10.6%" width="115.9%" height="125.0%" filterUnits="objectBoundingBox" id="filter-11">
      <feOffset dx="5" dy="5" in="SourceAlpha" result="shadowOffsetOuter1"></feOffset>
      <feGaussianBlur stdDeviation="2.5" in="shadowOffsetOuter1" result="shadowBlurOuter1"></feGaussianBlur>
      <feColorMatrix values="0 0 0 0 0.431372549   0 0 0 0 0.431372549   0 0 0 0 0.431372549  0 0 0 0.5 0" type="matrix"
                     in="shadowBlurOuter1" result="shadowMatrixOuter1"></feColorMatrix>
      <feOffset dx="-1" dy="-1" in="SourceAlpha" result="shadowOffsetOuter2"></feOffset>
      <feGaussianBlur stdDeviation="2.5" in="shadowOffsetOuter2" result="shadowBlurOuter2"></feGaussianBlur>
      <feColorMatrix values="0 0 0 0 1   0 0 0 0 1   0 0 0 0 1  0 0 0 1 0" type="matrix" in="shadowBlurOuter2"
                     result="shadowMatrixOuter2"></feColorMatrix>
      <feMerge>
        <feMergeNode in="shadowMatrixOuter1"></feMergeNode>
        <feMergeNode in="shadowMatrixOuter2"></feMergeNode>
      </feMerge>
    </filter>
  </defs>
  <g id="All-Pages" stroke="none" stroke-width="1" fill="none" fill-rule="evenodd">
    <g id="Step-5" transform="translate(-246.000000, -225.000000)">
      <g id="Nav-Bar" transform="translate(0.000000, 91.000000)">
        <mask id="mask-2" fill="white">
          <use xlink:href="#path-1"></use>
        </mask>
        <g id="Mask-Copy">
          <use fill="black" fill-opacity="1" filter="url(#filter-3)" xlink:href="#path-1"></use>
          <path stroke="#FFFFFF" stroke-width="1"
                d="M357.72,0.5 C362.353669,0.5 366.548669,2.37816547 369.585252,5.41474821 C372.621835,8.45133095 374.5,12.6463309 374.5,17.28 L374.5,17.28 L374.5,685.72 C374.5,690.353669 372.621835,694.548669 369.585252,697.585252 C366.548669,700.621835 362.353669,702.5 357.72,702.5 L357.72,702.5 L17.28,702.5 C12.6463309,702.5 8.45133095,700.621835 5.41474821,697.585252 C2.37816547,694.548669 0.5,690.353669 0.5,685.72 L0.5,685.72 L0.5,17.28 C0.5,12.6463309 2.37816547,8.45133095 5.41474821,5.41474821 C8.45133095,2.37816547 12.6463309,0.5 17.28,0.5 L17.28,0.5 Z"
                stroke-linejoin="square" fill="#F5F5F5" fill-rule="evenodd"></path>
        </g>
      </g>
      <g id="Nav-Bar" transform="translate(0.000000, 91.000000)">
        <mask id="mask-5" fill="white">
          <use xlink:href="#path-4"></use>
        </mask>
        <g id="Mask-Copy">
          <use fill="black" fill-opacity="1" filter="url(#filter-6)" xlink:href="#path-4"></use>
          <path stroke="#FFFFFF" stroke-width="1"
                d="M357.72,0.5 C362.353669,0.5 366.548669,2.37816547 369.585252,5.41474821 C372.621835,8.45133095 374.5,12.6463309 374.5,17.28 L374.5,17.28 L374.5,685.72 C374.5,690.353669 372.621835,694.548669 369.585252,697.585252 C366.548669,700.621835 362.353669,702.5 357.72,702.5 L357.72,702.5 L17.28,702.5 C12.6463309,702.5 8.45133095,700.621835 5.41474821,697.585252 C2.37816547,694.548669 0.5,690.353669 0.5,685.72 L0.5,685.72 L0.5,17.28 C0.5,12.6463309 2.37816547,8.45133095 5.41474821,5.41474821 C8.45133095,2.37816547 12.6463309,0.5 17.28,0.5 L17.28,0.5 Z"
                stroke-linejoin="square" fill="#F5F5F5" fill-rule="evenodd"></path>
        </g>
      </g>
      <g id="Nav-Bar">
        <mask id="mask-8" fill="white">
          <use xlink:href="#path-7"></use>
        </mask>
        <g id="Mask-Copy">
          <use fill="black" fill-opacity="1" filter="url(#filter-9)" xlink:href="#path-7"></use>
          <path stroke="#FFFFFF" stroke-width="1"
                d="M357.72,0.5 C362.353669,0.5 366.548669,2.37816547 369.585252,5.41474821 C372.621835,8.45133095 374.5,12.6463309 374.5,17.28 L374.5,17.28 L374.5,1349.72 C374.5,1354.35367 372.621835,1358.54867 369.585252,1361.58525 C366.548669,1364.62183 362.353669,1366.5 357.72,1366.5 L357.72,1366.5 L17.28,1366.5 C12.6463309,1366.5 8.45133095,1364.62183 5.41474821,1361.58525 C2.37816547,1358.54867 0.5,1354.35367 0.5,1349.72 L0.5,1349.72 L0.5,17.28 C0.5,12.6463309 2.37816547,8.45133095 5.41474821,5.41474821 C8.45133095,2.37816547 12.6463309,0.5 17.28,0.5 L17.28,0.5 Z"
                stroke-linejoin="square" fill="#F5F5F5" fill-rule="evenodd"></path>
        </g>
      </g>
      <g id="Group-6" transform="translate(188.000000, 203.000000)" fill-rule="nonzero">
        <g id="Rectangle">
          <use fill="black" fill-opacity="1" filter="url(#filter-11)" xlink:href="#path-10"></use>
          <use fill="#EEEEEF" xlink:href="#path-10"></use>
        </g>
      </g>
      <g id="rent-(1)" transform="translate(246.000000, 225.000000)" fill="#8A8585" fill-rule="nonzero">
        <path
          d="M41.8968523,41.7373478 C42.1718716,41.3731946 42.4990741,41.0497083 42.8676471,40.7765933 L42.8676471,21.8235294 L10.1323529,21.8235294 L10.1323529,43.9208805 C12.1049703,44.6108306 13.5449433,46.294808 13.8980024,48.3235294 L19.7603806,48.3235294 L19.7603806,34.1271008 C19.7603806,33.6044393 20.1914793,33.1806723 20.7231834,33.1806723 L32.2768166,33.1806723 C32.8085206,33.1806723 33.2396194,33.6044393 33.2396194,34.1271008 L33.2396194,48.3235294 L37.1966071,48.3235294 C37.5825744,46.4681042 39.0554557,45.0165749 40.9420415,44.6325504 C40.9420415,44.601126 40.9420415,44.5692395 40.9420415,44.5378151 C40.9458025,43.8284558 41.1141048,43.128801 41.4337855,42.4924572 C41.2875787,42.5876547 41.1173957,42.6407988 40.9420415,42.644958 L35.1652249,42.644958 C34.6335208,42.644958 34.2024221,42.2211909 34.2024221,41.6985294 L34.2024221,36.019958 C34.2024221,35.4972965 34.6335208,35.0735294 35.1652249,35.0735294 L40.9420415,35.0735294 C41.4737455,35.0735294 41.9048443,35.4972965 41.9048443,36.019958 L41.9048443,41.6985294 C41.9048443,41.7128551 41.8968523,41.7239461 41.8968523,41.7373478 Z M18.7975779,41.6985294 C18.7975779,42.2211909 18.3664791,42.644958 17.8347751,42.644958 L12.0579585,42.644958 C11.5262544,42.644958 11.0951557,42.2211909 11.0951557,41.6985294 L11.0951557,36.019958 C11.0951557,35.4972965 11.5262544,35.0735294 12.0579585,35.0735294 L17.8347751,35.0735294 C18.3664791,35.0735294 18.7975779,35.4972965 18.7975779,36.019958 L18.7975779,41.6985294 Z M33.2396194,30.3413866 C33.2396194,31.3867095 32.3774219,32.2342437 31.3140138,32.2342437 L21.6859862,32.2342437 C20.622578,32.2342437 19.7603806,31.3867095 19.7603806,30.3413866 L19.7603806,26.5556723 C19.7603806,25.5103492 20.622578,24.6628151 21.6859862,24.6628151 L31.3140138,24.6628151 C32.3774219,24.6628151 33.2396194,25.5103492 33.2396194,26.5556723 L33.2396194,30.3413866 Z"
          id="Shape"></path>
        <polygon id="Path"
                 points="27.2794118 27.2794118 31.1764706 27.2794118 31.1764706 28.0588235 27.2794118 28.0588235"></polygon>
        <path
          d="M3.11764706,23.09114 C3.11494345,23.3756759 3.22600852,23.649017 3.4251915,23.8486586 C3.83686678,24.2661334 4.50371648,24.2661334 4.91585079,23.8486586 L22.9689832,5.50028937 L22.9689832,3.98525216 C22.9689832,2.40257928 24.2315459,1.11936898 25.7887525,1.11936898 L27.2794118,1.11936898 L26.4464232,0.27602315 C26.0806427,-0.0920077167 25.4913549,-0.0920077167 25.1251153,0.27602315 L3.4251915,22.3336214 C3.22600852,22.5337295 3.11494345,22.8070705 3.11764706,23.09114 Z"
          id="Path"></path>
        <polygon id="Path"
                 points="27.2794118 29.6176471 31.1764706 29.6176471 31.1764706 30.3970588 27.2794118 30.3970588"></polygon>
        <polygon id="Path"
                 points="35.8529412 37.4117647 39.75 37.4117647 39.75 41.3088235 35.8529412 41.3088235"></polygon>
        <polygon id="Path"
                 points="13.25 37.4117647 17.1470588 37.4117647 17.1470588 41.3088235 13.25 41.3088235"></polygon>
        <path
          d="M31.1764706,49.1029412 L31.1764706,35.8529412 L21.8235294,35.8529412 L21.8235294,49.1029412 L31.1764706,49.1029412 Z M22.7588235,42.4779412 L23.6941176,42.4779412 L23.6941176,40.585084 L22.7588235,40.585084 L22.7588235,38.6922269 L24.6294118,38.6922269 C25.1459242,38.6922269 25.5647059,39.115994 25.5647059,39.6386555 L25.5647059,43.4243697 C25.5647059,43.9470313 25.1459242,44.3707983 24.6294118,44.3707983 L22.7588235,44.3707983 L22.7588235,42.4779412 Z"
          id="Shape"></path>
        <polygon id="Path"
                 points="21.8235294 29.6176471 25.7205882 29.6176471 25.7205882 30.3970588 21.8235294 30.3970588"></polygon>
        <polygon id="Path"
                 points="21.8235294 27.2794118 25.7205882 27.2794118 25.7205882 28.0588235 21.8235294 28.0588235"></polygon>
        <path
          d="M8.0966098,46.2964722 C8.05492841,46.3078917 8.01188782,46.3129164 7.9683942,46.3124596 C7.55837622,46.3371258 7.18324372,46.0795007 7.05548114,45.6857545 C6.76144616,44.8228932 5.8915737,44.3012482 4.99950139,44.4524431 C4.10697594,44.6040946 3.4545716,45.3842785 3.45729001,46.2964722 C3.4600083,46.5810473 3.52796714,46.8615116 3.6557296,47.1150257 C3.8310633,47.4745132 3.75993313,47.9066289 3.47858379,48.1898338 C3.19768736,48.4730387 2.76864097,48.5442967 2.41253688,48.3666085 C1.54130521,47.9363197 0.487944055,48.2574376 0,49.1029412 L11.6911765,49.1029412 C11.2662076,47.451674 9.78878361,46.2982993 8.0966098,46.2964722 L8.0966098,46.2964722 Z"
          id="Path"></path>
        <path
          d="M29.2279412,7.01470588 L28.0588235,7.01470588 L28.0588235,9.35294118 L29.2279412,9.35294118 C29.8735817,9.35294118 30.3970588,8.82946422 30.3970588,8.18382353 C30.3970588,7.53818284 29.8735817,7.01470588 29.2279412,7.01470588 Z"
          id="Path"></path>
        <path
          d="M51.2741597,3.11764706 L26.6670168,3.11764706 C26.1443553,3.11764706 25.7205882,3.54141412 25.7205882,4.06407563 L25.7205882,15.4212185 C25.7205882,15.94388 26.1443553,16.3676471 26.6670168,16.3676471 L51.2741597,16.3676471 C51.7968211,16.3676471 52.2205882,15.94388 52.2205882,15.4212185 L52.2205882,4.06407563 C52.2205882,3.54141412 51.7968211,3.11764706 51.2741597,3.11764706 Z M32.3455882,12.7298122 L32.3455882,14.4747899 L30.4527311,14.4747899 L30.4527311,12.7298122 C30.4513447,11.6604588 29.6259924,10.773182 28.5598739,10.6936968 L28.5598739,14.4794111 L26.6670168,14.4794111 L26.6670168,5.95693277 C26.6670168,5.43427126 27.0907839,5.01048321 27.6134454,5.01048321 L29.5063025,5.01048321 C30.7110581,5.00588291 31.786419,5.76468947 32.1852314,6.90151285 C32.584506,8.03787402 32.2198907,9.30270565 31.2771591,10.0522696 C31.9615637,10.7759548 32.3437397,11.7334743 32.3455882,12.7298122 Z M38.0241597,6.90336134 L35.1848739,6.90336134 L35.1848739,8.79621849 L37.0777311,8.79621849 L37.0777311,10.6890756 L35.1848739,10.6890756 L35.1848739,12.5819328 L38.0241597,12.5819328 L38.0241597,14.4747899 L34.2384454,14.4747899 C33.7157839,14.4747899 33.2920168,14.0510229 33.2920168,13.5283613 L33.2920168,5.95693277 C33.2920168,5.43427126 33.7157839,5.0105042 34.2384454,5.0105042 L38.0241597,5.0105042 L38.0241597,6.90336134 Z M44.6491597,13.5283613 C44.6542429,13.9715375 44.35109,14.3587969 43.9194669,14.4604641 C43.4878438,14.5616691 43.0442054,14.3504788 42.8510378,13.9516663 L40.8634454,9.96631475 L40.8634454,14.4747899 L38.9705882,14.4747899 L38.9705882,5.95693277 C38.9655048,5.51375647 39.2686578,5.12649719 39.7002809,5.02529215 C40.131442,4.92362502 40.5755425,5.13527744 40.76871,5.5340899 L42.7563025,9.51944146 L42.7563025,5.0105042 L44.6491597,5.0105042 L44.6491597,13.5283613 Z M51.2741597,6.90336134 L49.3813025,6.90336134 L49.3813025,14.4747899 L47.4884454,14.4747899 L47.4884454,6.90336134 L45.5955882,6.90336134 L45.5955882,5.0105042 L51.2741597,5.0105042 L51.2741597,6.90336134 Z"
          id="Shape"></path>
        <path
          d="M49.3055479,46.4316667 C48.7785012,46.4316667 48.3511788,46.0327158 48.3511788,45.5406618 C48.3511788,44.0644998 47.0692113,42.8676471 45.4880716,42.8676471 C43.9069319,42.8676471 42.6249644,44.0644998 42.6249644,45.5406618 C42.6291584,45.7695038 42.6655065,45.9970407 42.7326105,46.2171817 C42.8099666,46.4903998 42.7442605,46.7814557 42.5545983,47.0020316 C42.365402,47.2226075 42.0750838,47.3461648 41.7726493,47.3352883 C41.7400294,47.3352883 41.6440333,47.3244118 41.6114132,47.3209314 C40.4175199,47.3378988 39.3624948,48.0500936 38.9705882,49.1029412 L53,49.1029412 C52.5624255,47.5319359 51.0441957,46.434277 49.3055479,46.4316667 L49.3055479,46.4316667 Z"
          id="Path"></path>
        <path
          d="M48.0828405,24.1617647 C48.3539488,24.164329 48.6139461,24.0589905 48.8046109,23.8700778 C49.2023846,23.4796291 49.2023846,22.8471631 48.8046109,22.4562792 L44.9753168,18.7058824 L42.0882353,18.7058824 L47.3610701,23.8700778 C47.5512904,24.0589905 47.8117321,24.164329 48.0828405,24.1617647 Z"
          id="Path"></path>
        <path
          d="M11.6911765,20.2647059 L41.3088235,20.2647059 L39.4085434,18.4068901 L26.5,18.4068901 C24.9258666,18.4068901 23.6495798,17.1591237 23.6495798,15.6201665 L23.6495798,8.57352941 L11.6911765,20.2647059 Z"
          id="Path"></path>
      </g>
    </g>
  </g>
</svg>
