<svg width="36px" height="33px" viewBox="0 0 36 33" version="1.1" xmlns="http://www.w3.org/2000/svg"
     xmlns:xlink="http://www.w3.org/1999/xlink">
  <title>pharmacy</title>
  <defs>
    <path
      d="M17.28,0 L357.72,0 C367.26348,2.8599431e-14 375,7.73651952 375,17.28 L375,685.72 C375,695.26348 367.26348,703 357.72,703 L17.28,703 C7.73651952,703 6.11883762e-14,695.26348 0,685.72 L0,17.28 C-4.72145296e-15,7.73651952 7.73651952,-3.02213142e-14 17.28,0 Z"
      id="path-1"></path>
    <filter x="-6.4%" y="-3.4%" width="112.5%" height="106.7%" filterUnits="objectBoundingBox" id="filter-3">
      <feOffset dx="6" dy="6" in="SourceAlpha" result="shadowOffsetOuter1"></feOffset>
      <feGaussianBlur stdDeviation="4.5" in="shadowOffsetOuter1" result="shadowBlurOuter1"></feGaussianBlur>
      <feComposite in="shadowBlurOuter1" in2="SourceAlpha" operator="out" result="shadowBlurOuter1"></feComposite>
      <feColorMatrix values="0 0 0 0 0   0 0 0 0 0   0 0 0 0 0  0 0 0 0.0520104895 0" type="matrix"
                     in="shadowBlurOuter1" result="shadowMatrixOuter1"></feColorMatrix>
      <feOffset dx="-6" dy="-6" in="SourceAlpha" result="shadowOffsetOuter2"></feOffset>
      <feGaussianBlur stdDeviation="5" in="shadowOffsetOuter2" result="shadowBlurOuter2"></feGaussianBlur>
      <feComposite in="shadowBlurOuter2" in2="SourceAlpha" operator="out" result="shadowBlurOuter2"></feComposite>
      <feColorMatrix values="0 0 0 0 1   0 0 0 0 1   0 0 0 0 1  0 0 0 1 0" type="matrix" in="shadowBlurOuter2"
                     result="shadowMatrixOuter2"></feColorMatrix>
      <feMerge>
        <feMergeNode in="shadowMatrixOuter1"></feMergeNode>
        <feMergeNode in="shadowMatrixOuter2"></feMergeNode>
      </feMerge>
    </filter>
    <path
      d="M17.28,0 L357.72,0 C367.26348,2.8599431e-14 375,7.73651952 375,17.28 L375,685.72 C375,695.26348 367.26348,703 357.72,703 L17.28,703 C7.73651952,703 6.11883762e-14,695.26348 0,685.72 L0,17.28 C-4.72145296e-15,7.73651952 7.73651952,-3.02213142e-14 17.28,0 Z"
      id="path-4"></path>
    <filter x="-6.4%" y="-3.4%" width="112.5%" height="106.7%" filterUnits="objectBoundingBox" id="filter-6">
      <feOffset dx="6" dy="6" in="SourceAlpha" result="shadowOffsetOuter1"></feOffset>
      <feGaussianBlur stdDeviation="4.5" in="shadowOffsetOuter1" result="shadowBlurOuter1"></feGaussianBlur>
      <feComposite in="shadowBlurOuter1" in2="SourceAlpha" operator="out" result="shadowBlurOuter1"></feComposite>
      <feColorMatrix values="0 0 0 0 0   0 0 0 0 0   0 0 0 0 0  0 0 0 0.0520104895 0" type="matrix"
                     in="shadowBlurOuter1" result="shadowMatrixOuter1"></feColorMatrix>
      <feOffset dx="-6" dy="-6" in="SourceAlpha" result="shadowOffsetOuter2"></feOffset>
      <feGaussianBlur stdDeviation="5" in="shadowOffsetOuter2" result="shadowBlurOuter2"></feGaussianBlur>
      <feComposite in="shadowBlurOuter2" in2="SourceAlpha" operator="out" result="shadowBlurOuter2"></feComposite>
      <feColorMatrix values="0 0 0 0 1   0 0 0 0 1   0 0 0 0 1  0 0 0 1 0" type="matrix" in="shadowBlurOuter2"
                     result="shadowMatrixOuter2"></feColorMatrix>
      <feMerge>
        <feMergeNode in="shadowMatrixOuter1"></feMergeNode>
        <feMergeNode in="shadowMatrixOuter2"></feMergeNode>
      </feMerge>
    </filter>
    <path
      d="M17.28,0 L357.72,0 C367.26348,1.79960476e-15 375,7.73651952 375,17.28 L375,1589.72 C375,1599.26348 367.26348,1607 357.72,1607 L17.28,1607 C7.73651952,1607 1.16873928e-15,1599.26348 0,1589.72 L0,17.28 C-1.16873928e-15,7.73651952 7.73651952,-2.66686005e-14 17.28,0 Z"
      id="path-7"></path>
    <filter x="-6.4%" y="-1.5%" width="112.5%" height="102.9%" filterUnits="objectBoundingBox" id="filter-9">
      <feOffset dx="6" dy="6" in="SourceAlpha" result="shadowOffsetOuter1"></feOffset>
      <feGaussianBlur stdDeviation="4.5" in="shadowOffsetOuter1" result="shadowBlurOuter1"></feGaussianBlur>
      <feComposite in="shadowBlurOuter1" in2="SourceAlpha" operator="out" result="shadowBlurOuter1"></feComposite>
      <feColorMatrix values="0 0 0 0 0   0 0 0 0 0   0 0 0 0 0  0 0 0 0.0520104895 0" type="matrix"
                     in="shadowBlurOuter1" result="shadowMatrixOuter1"></feColorMatrix>
      <feOffset dx="-6" dy="-6" in="SourceAlpha" result="shadowOffsetOuter2"></feOffset>
      <feGaussianBlur stdDeviation="5" in="shadowOffsetOuter2" result="shadowBlurOuter2"></feGaussianBlur>
      <feComposite in="shadowBlurOuter2" in2="SourceAlpha" operator="out" result="shadowBlurOuter2"></feComposite>
      <feColorMatrix values="0 0 0 0 1   0 0 0 0 1   0 0 0 0 1  0 0 0 1 0" type="matrix" in="shadowBlurOuter2"
                     result="shadowMatrixOuter2"></feColorMatrix>
      <feMerge>
        <feMergeNode in="shadowMatrixOuter1"></feMergeNode>
        <feMergeNode in="shadowMatrixOuter2"></feMergeNode>
      </feMerge>
    </filter>
    <rect id="path-10" x="0" y="0" width="72" height="72" rx="8"></rect>
    <filter x="-15.3%" y="-15.3%" width="136.1%" height="136.1%" filterUnits="objectBoundingBox" id="filter-11">
      <feOffset dx="5" dy="5" in="SourceAlpha" result="shadowOffsetOuter1"></feOffset>
      <feGaussianBlur stdDeviation="2.5" in="shadowOffsetOuter1" result="shadowBlurOuter1"></feGaussianBlur>
      <feColorMatrix values="0 0 0 0 0.431372549   0 0 0 0 0.431372549   0 0 0 0 0.431372549  0 0 0 0.5 0" type="matrix"
                     in="shadowBlurOuter1" result="shadowMatrixOuter1"></feColorMatrix>
      <feOffset dx="-1" dy="-1" in="SourceAlpha" result="shadowOffsetOuter2"></feOffset>
      <feGaussianBlur stdDeviation="2.5" in="shadowOffsetOuter2" result="shadowBlurOuter2"></feGaussianBlur>
      <feColorMatrix values="0 0 0 0 1   0 0 0 0 1   0 0 0 0 1  0 0 0 1 0" type="matrix" in="shadowBlurOuter2"
                     result="shadowMatrixOuter2"></feColorMatrix>
      <feMerge>
        <feMergeNode in="shadowMatrixOuter1"></feMergeNode>
        <feMergeNode in="shadowMatrixOuter2"></feMergeNode>
      </feMerge>
    </filter>
  </defs>
  <g id="All-Pages" stroke="none" stroke-width="1" fill="none" fill-rule="evenodd">
    <g id="Add-Property.Location-Step-1" transform="translate(-125.000000, -309.000000)">
      <g id="Nav-Bar" transform="translate(0.000000, 91.000000)">
        <mask id="mask-2" fill="white">
          <use xlink:href="#path-1"></use>
        </mask>
        <g id="Mask-Copy">
          <use fill="black" fill-opacity="1" filter="url(#filter-3)" xlink:href="#path-1"></use>
          <path stroke="#FFFFFF" stroke-width="1"
                d="M357.72,0.5 C362.353669,0.5 366.548669,2.37816547 369.585252,5.41474821 C372.621835,8.45133095 374.5,12.6463309 374.5,17.28 L374.5,17.28 L374.5,685.72 C374.5,690.353669 372.621835,694.548669 369.585252,697.585252 C366.548669,700.621835 362.353669,702.5 357.72,702.5 L357.72,702.5 L17.28,702.5 C12.6463309,702.5 8.45133095,700.621835 5.41474821,697.585252 C2.37816547,694.548669 0.5,690.353669 0.5,685.72 L0.5,685.72 L0.5,17.28 C0.5,12.6463309 2.37816547,8.45133095 5.41474821,5.41474821 C8.45133095,2.37816547 12.6463309,0.5 17.28,0.5 L17.28,0.5 Z"
                stroke-linejoin="square" fill="#F5F5F5" fill-rule="evenodd"></path>
        </g>
      </g>
      <g id="Nav-Bar" transform="translate(0.000000, 91.000000)">
        <mask id="mask-5" fill="white">
          <use xlink:href="#path-4"></use>
        </mask>
        <g id="Mask-Copy">
          <use fill="black" fill-opacity="1" filter="url(#filter-6)" xlink:href="#path-4"></use>
          <path stroke="#FFFFFF" stroke-width="1"
                d="M357.72,0.5 C362.353669,0.5 366.548669,2.37816547 369.585252,5.41474821 C372.621835,8.45133095 374.5,12.6463309 374.5,17.28 L374.5,17.28 L374.5,685.72 C374.5,690.353669 372.621835,694.548669 369.585252,697.585252 C366.548669,700.621835 362.353669,702.5 357.72,702.5 L357.72,702.5 L17.28,702.5 C12.6463309,702.5 8.45133095,700.621835 5.41474821,697.585252 C2.37816547,694.548669 0.5,690.353669 0.5,685.72 L0.5,685.72 L0.5,17.28 C0.5,12.6463309 2.37816547,8.45133095 5.41474821,5.41474821 C8.45133095,2.37816547 12.6463309,0.5 17.28,0.5 L17.28,0.5 Z"
                stroke-linejoin="square" fill="#F5F5F5" fill-rule="evenodd"></path>
        </g>
      </g>
      <g id="Nav-Bar">
        <mask id="mask-8" fill="white">
          <use xlink:href="#path-7"></use>
        </mask>
        <g id="Mask-Copy">
          <use fill="black" fill-opacity="1" filter="url(#filter-9)" xlink:href="#path-7"></use>
          <path stroke="#FFFFFF" stroke-width="1"
                d="M357.72,0.5 C362.353669,0.5 366.548669,2.37816547 369.585252,5.41474821 C372.621835,8.45133095 374.5,12.6463309 374.5,17.28 L374.5,17.28 L374.5,1589.72 C374.5,1594.35367 372.621835,1598.54867 369.585252,1601.58525 C366.548669,1604.62183 362.353669,1606.5 357.72,1606.5 L357.72,1606.5 L17.28,1606.5 C12.6463309,1606.5 8.45133095,1604.62183 5.41474821,1601.58525 C2.37816547,1598.54867 0.5,1594.35367 0.5,1589.72 L0.5,1589.72 L0.5,17.28 C0.5,12.6463309 2.37816547,8.45133095 5.41474821,5.41474821 C8.45133095,2.37816547 12.6463309,0.5 17.28,0.5 L17.28,0.5 Z"
                stroke-linejoin="square" fill="#F5F5F5" fill-rule="evenodd"></path>
        </g>
      </g>
      <g id="Group-2" transform="translate(19.000000, 177.000000)" fill-rule="nonzero">
        <g id="Group-11" transform="translate(0.000000, 119.000000)">
          <g id="Rectangle" transform="translate(88.000000, 0.000000)">
            <use fill="black" fill-opacity="1" filter="url(#filter-11)" xlink:href="#path-10"></use>
            <use fill="#EEEEEF" xlink:href="#path-10"></use>
          </g>
          <g id="pharmacy" transform="translate(106.000000, 13.000000)" fill="#888585">
            <path
              d="M35.39881,12.3234667 L18.8999535,0.337117391 C18.3000193,-0.112372464 17.7000149,-0.112372464 17.1000808,0.337117391 L0.601224197,12.3234667 C-0.598714375,13.0726399 0.151256021,15.0204058 1.50116055,15.0204058 L4.50097182,15.0204058 L4.50097182,31.5017239 C4.50097182,32.4007036 5.10090596,33 6.00084231,33 L29.9991216,33 C30.8990579,33 31.4989921,32.4007036 31.4989921,31.5017239 L31.4989921,15.0204058 L34.4988034,15.0204058 C35.8487782,15.0204058 36.5986783,13.0726399 35.39881,12.3234667 Z M18.0000171,30.0034478 C13.0503672,30.0034478 9.00065358,25.9580391 9.00065358,21.0136507 C9.00065358,16.0692623 13.0503672,12.0238536 18.0000171,12.0238536 C22.949667,12.0238536 26.9993806,16.0692623 26.9993806,21.0136507 C26.9993806,25.9580391 22.949667,30.0034478 18.0000171,30.0034478 Z"
              id="Shape"></path>
            <polygon id="Path"
                     points="20.3333333 18.3333333 20.3333333 14 15.6666667 14 15.6666667 18.3333333 11 18.3333333 11 22.6666667 15.6666667 22.6666667 15.6666667 27 20.3333333 27 20.3333333 22.6666667 25 22.6666667 25 18.3333333"></polygon>
          </g>
        </g>
      </g>
    </g>
  </g>
</svg>
