<svg width="33px" height="33px" viewBox="0 0 33 33" version="1.1" xmlns="http://www.w3.org/2000/svg"
     xmlns:xlink="http://www.w3.org/1999/xlink">
  <title>meeting (2)</title>
  <defs>
    <path
      d="M17.28,0 L357.72,0 C367.26348,2.8599431e-14 375,7.73651952 375,17.28 L375,685.72 C375,695.26348 367.26348,703 357.72,703 L17.28,703 C7.73651952,703 6.11883762e-14,695.26348 0,685.72 L0,17.28 C-4.72145296e-15,7.73651952 7.73651952,-3.02213142e-14 17.28,0 Z"
      id="path-1"></path>
    <filter x="-6.4%" y="-3.4%" width="112.5%" height="106.7%" filterUnits="objectBoundingBox" id="filter-3">
      <feOffset dx="6" dy="6" in="SourceAlpha" result="shadowOffsetOuter1"></feOffset>
      <feGaussianBlur stdDeviation="4.5" in="shadowOffsetOuter1" result="shadowBlurOuter1"></feGaussianBlur>
      <feComposite in="shadowBlurOuter1" in2="SourceAlpha" operator="out" result="shadowBlurOuter1"></feComposite>
      <feColorMatrix values="0 0 0 0 0   0 0 0 0 0   0 0 0 0 0  0 0 0 0.0520104895 0" type="matrix"
                     in="shadowBlurOuter1" result="shadowMatrixOuter1"></feColorMatrix>
      <feOffset dx="-6" dy="-6" in="SourceAlpha" result="shadowOffsetOuter2"></feOffset>
      <feGaussianBlur stdDeviation="5" in="shadowOffsetOuter2" result="shadowBlurOuter2"></feGaussianBlur>
      <feComposite in="shadowBlurOuter2" in2="SourceAlpha" operator="out" result="shadowBlurOuter2"></feComposite>
      <feColorMatrix values="0 0 0 0 1   0 0 0 0 1   0 0 0 0 1  0 0 0 1 0" type="matrix" in="shadowBlurOuter2"
                     result="shadowMatrixOuter2"></feColorMatrix>
      <feMerge>
        <feMergeNode in="shadowMatrixOuter1"></feMergeNode>
        <feMergeNode in="shadowMatrixOuter2"></feMergeNode>
      </feMerge>
    </filter>
    <path
      d="M17.28,0 L357.72,0 C367.26348,2.8599431e-14 375,7.73651952 375,17.28 L375,685.72 C375,695.26348 367.26348,703 357.72,703 L17.28,703 C7.73651952,703 6.11883762e-14,695.26348 0,685.72 L0,17.28 C-4.72145296e-15,7.73651952 7.73651952,-3.02213142e-14 17.28,0 Z"
      id="path-4"></path>
    <filter x="-6.4%" y="-3.4%" width="112.5%" height="106.7%" filterUnits="objectBoundingBox" id="filter-6">
      <feOffset dx="6" dy="6" in="SourceAlpha" result="shadowOffsetOuter1"></feOffset>
      <feGaussianBlur stdDeviation="4.5" in="shadowOffsetOuter1" result="shadowBlurOuter1"></feGaussianBlur>
      <feComposite in="shadowBlurOuter1" in2="SourceAlpha" operator="out" result="shadowBlurOuter1"></feComposite>
      <feColorMatrix values="0 0 0 0 0   0 0 0 0 0   0 0 0 0 0  0 0 0 0.0520104895 0" type="matrix"
                     in="shadowBlurOuter1" result="shadowMatrixOuter1"></feColorMatrix>
      <feOffset dx="-6" dy="-6" in="SourceAlpha" result="shadowOffsetOuter2"></feOffset>
      <feGaussianBlur stdDeviation="5" in="shadowOffsetOuter2" result="shadowBlurOuter2"></feGaussianBlur>
      <feComposite in="shadowBlurOuter2" in2="SourceAlpha" operator="out" result="shadowBlurOuter2"></feComposite>
      <feColorMatrix values="0 0 0 0 1   0 0 0 0 1   0 0 0 0 1  0 0 0 1 0" type="matrix" in="shadowBlurOuter2"
                     result="shadowMatrixOuter2"></feColorMatrix>
      <feMerge>
        <feMergeNode in="shadowMatrixOuter1"></feMergeNode>
        <feMergeNode in="shadowMatrixOuter2"></feMergeNode>
      </feMerge>
    </filter>
    <path
      d="M17.28,0 L357.72,0 C367.26348,1.79960476e-15 375,7.73651952 375,17.28 L375,1589.72 C375,1599.26348 367.26348,1607 357.72,1607 L17.28,1607 C7.73651952,1607 1.16873928e-15,1599.26348 0,1589.72 L0,17.28 C-1.16873928e-15,7.73651952 7.73651952,-2.66686005e-14 17.28,0 Z"
      id="path-7"></path>
    <filter x="-6.4%" y="-1.5%" width="112.5%" height="102.9%" filterUnits="objectBoundingBox" id="filter-9">
      <feOffset dx="6" dy="6" in="SourceAlpha" result="shadowOffsetOuter1"></feOffset>
      <feGaussianBlur stdDeviation="4.5" in="shadowOffsetOuter1" result="shadowBlurOuter1"></feGaussianBlur>
      <feComposite in="shadowBlurOuter1" in2="SourceAlpha" operator="out" result="shadowBlurOuter1"></feComposite>
      <feColorMatrix values="0 0 0 0 0   0 0 0 0 0   0 0 0 0 0  0 0 0 0.0520104895 0" type="matrix"
                     in="shadowBlurOuter1" result="shadowMatrixOuter1"></feColorMatrix>
      <feOffset dx="-6" dy="-6" in="SourceAlpha" result="shadowOffsetOuter2"></feOffset>
      <feGaussianBlur stdDeviation="5" in="shadowOffsetOuter2" result="shadowBlurOuter2"></feGaussianBlur>
      <feComposite in="shadowBlurOuter2" in2="SourceAlpha" operator="out" result="shadowBlurOuter2"></feComposite>
      <feColorMatrix values="0 0 0 0 1   0 0 0 0 1   0 0 0 0 1  0 0 0 1 0" type="matrix" in="shadowBlurOuter2"
                     result="shadowMatrixOuter2"></feColorMatrix>
      <feMerge>
        <feMergeNode in="shadowMatrixOuter1"></feMergeNode>
        <feMergeNode in="shadowMatrixOuter2"></feMergeNode>
      </feMerge>
    </filter>
    <rect id="path-10" x="0" y="0" width="72" height="91" rx="8"></rect>
    <filter x="-15.3%" y="-12.1%" width="136.1%" height="128.6%" filterUnits="objectBoundingBox" id="filter-11">
      <feOffset dx="5" dy="5" in="SourceAlpha" result="shadowOffsetOuter1"></feOffset>
      <feGaussianBlur stdDeviation="2.5" in="shadowOffsetOuter1" result="shadowBlurOuter1"></feGaussianBlur>
      <feColorMatrix values="0 0 0 0 0.431372549   0 0 0 0 0.431372549   0 0 0 0 0.431372549  0 0 0 0.5 0" type="matrix"
                     in="shadowBlurOuter1" result="shadowMatrixOuter1"></feColorMatrix>
      <feOffset dx="-1" dy="-1" in="SourceAlpha" result="shadowOffsetOuter2"></feOffset>
      <feGaussianBlur stdDeviation="2.5" in="shadowOffsetOuter2" result="shadowBlurOuter2"></feGaussianBlur>
      <feColorMatrix values="0 0 0 0 1   0 0 0 0 1   0 0 0 0 1  0 0 0 1 0" type="matrix" in="shadowBlurOuter2"
                     result="shadowMatrixOuter2"></feColorMatrix>
      <feMerge>
        <feMergeNode in="shadowMatrixOuter1"></feMergeNode>
        <feMergeNode in="shadowMatrixOuter2"></feMergeNode>
      </feMerge>
    </filter>
  </defs>
  <g id="All-Pages" stroke="none" stroke-width="1" fill="none" fill-rule="evenodd">
    <g id="Add-Property.Location-Step-1" transform="translate(-302.000000, -401.000000)">
      <g id="Nav-Bar" transform="translate(0.000000, 91.000000)">
        <mask id="mask-2" fill="white">
          <use xlink:href="#path-1"></use>
        </mask>
        <g id="Mask-Copy">
          <use fill="black" fill-opacity="1" filter="url(#filter-3)" xlink:href="#path-1"></use>
          <path stroke="#FFFFFF" stroke-width="1"
                d="M357.72,0.5 C362.353669,0.5 366.548669,2.37816547 369.585252,5.41474821 C372.621835,8.45133095 374.5,12.6463309 374.5,17.28 L374.5,17.28 L374.5,685.72 C374.5,690.353669 372.621835,694.548669 369.585252,697.585252 C366.548669,700.621835 362.353669,702.5 357.72,702.5 L357.72,702.5 L17.28,702.5 C12.6463309,702.5 8.45133095,700.621835 5.41474821,697.585252 C2.37816547,694.548669 0.5,690.353669 0.5,685.72 L0.5,685.72 L0.5,17.28 C0.5,12.6463309 2.37816547,8.45133095 5.41474821,5.41474821 C8.45133095,2.37816547 12.6463309,0.5 17.28,0.5 L17.28,0.5 Z"
                stroke-linejoin="square" fill="#F5F5F5" fill-rule="evenodd"></path>
        </g>
      </g>
      <g id="Nav-Bar" transform="translate(0.000000, 91.000000)">
        <mask id="mask-5" fill="white">
          <use xlink:href="#path-4"></use>
        </mask>
        <g id="Mask-Copy">
          <use fill="black" fill-opacity="1" filter="url(#filter-6)" xlink:href="#path-4"></use>
          <path stroke="#FFFFFF" stroke-width="1"
                d="M357.72,0.5 C362.353669,0.5 366.548669,2.37816547 369.585252,5.41474821 C372.621835,8.45133095 374.5,12.6463309 374.5,17.28 L374.5,17.28 L374.5,685.72 C374.5,690.353669 372.621835,694.548669 369.585252,697.585252 C366.548669,700.621835 362.353669,702.5 357.72,702.5 L357.72,702.5 L17.28,702.5 C12.6463309,702.5 8.45133095,700.621835 5.41474821,697.585252 C2.37816547,694.548669 0.5,690.353669 0.5,685.72 L0.5,685.72 L0.5,17.28 C0.5,12.6463309 2.37816547,8.45133095 5.41474821,5.41474821 C8.45133095,2.37816547 12.6463309,0.5 17.28,0.5 L17.28,0.5 Z"
                stroke-linejoin="square" fill="#F5F5F5" fill-rule="evenodd"></path>
        </g>
      </g>
      <g id="Nav-Bar">
        <mask id="mask-8" fill="white">
          <use xlink:href="#path-7"></use>
        </mask>
        <g id="Mask-Copy">
          <use fill="black" fill-opacity="1" filter="url(#filter-9)" xlink:href="#path-7"></use>
          <path stroke="#FFFFFF" stroke-width="1"
                d="M357.72,0.5 C362.353669,0.5 366.548669,2.37816547 369.585252,5.41474821 C372.621835,8.45133095 374.5,12.6463309 374.5,17.28 L374.5,17.28 L374.5,1589.72 C374.5,1594.35367 372.621835,1598.54867 369.585252,1601.58525 C366.548669,1604.62183 362.353669,1606.5 357.72,1606.5 L357.72,1606.5 L17.28,1606.5 C12.6463309,1606.5 8.45133095,1604.62183 5.41474821,1601.58525 C2.37816547,1598.54867 0.5,1594.35367 0.5,1589.72 L0.5,1589.72 L0.5,17.28 C0.5,12.6463309 2.37816547,8.45133095 5.41474821,5.41474821 C8.45133095,2.37816547 12.6463309,0.5 17.28,0.5 L17.28,0.5 Z"
                stroke-linejoin="square" fill="#F5F5F5" fill-rule="evenodd"></path>
        </g>
      </g>
      <g id="Group-2" transform="translate(19.000000, 177.000000)" fill-rule="nonzero">
        <g id="Rectangle" transform="translate(264.000000, 207.000000)">
          <use fill="black" fill-opacity="1" filter="url(#filter-11)" xlink:href="#path-10"></use>
          <use fill="#EEEEEF" xlink:href="#path-10"></use>
        </g>
      </g>
      <g id="meeting-(2)" transform="translate(302.000000, 401.000000)" fill="#888585" fill-rule="nonzero">
        <path
          d="M17,8 C19.2056244,8 21,6.20551123 21,4 C21,1.79448877 19.2056244,0 17,0 C14.7943756,0 13,1.79448877 13,4 C13,6.20551123 14.7943756,8 17,8 Z"
          id="Path"></path>
        <path
          d="M17.8116074,9.11824629 C17.672893,9.03959918 17.4701159,9 17.2650445,9 L15.7349509,9 C15.5298795,9 15.3271024,9.03959918 15.188388,9.11824629 C14.9736102,9.2400758 14.9425494,9.41602113 15.0948529,9.55356169 L15.9126676,10.1955095 L15.529703,11.8770507 L16.2836315,12.921238 C16.3572243,13.026254 16.6424182,13.026254 16.7160109,12.921238 L17.4699394,11.8770507 L17.0869748,10.1955095 L17.9047895,9.55356169 C18.0576224,9.41602113 18.0263852,9.23998392 17.8116074,9.11824629 Z"
          id="Path"></path>
        <path
          d="M10.5925889,18 L23.4072934,18 C23.7340766,18 24,17.7271607 24,17.3918788 L24,11.9141988 C24,10.3182279 22.9916337,8.90100971 21.4907382,8.38782067 L20.3206283,8.01932461 C20.1065005,7.95144693 19.8783644,8.06811923 19.801495,8.28431325 L17.0000589,16.1706846 L14.1986227,8.28419247 C14.136468,8.10954635 13.9757839,8 13.8035635,8 C13.7625979,8 13.7209259,8.00615972 13.6799603,8.01920383 L12.5187969,8.38468042 C11.0083663,8.90113049 10,10.3182279 10,11.9141988 L10,17.3918788 C10,17.7271607 10.2659234,18 10.5925889,18 Z"
          id="Path"></path>
        <path
          d="M3.99994342,10 C6.20559902,10 8,8.20559902 8,6.00005658 C8,3.79440098 6.20548585,2 3.99994342,2 C1.79440098,2 0,3.79451415 0,6.00005658 C0,8.20571218 1.79440098,10 3.99994342,10 Z"
          id="Path"></path>
        <path
          d="M10.9029249,20.7697867 L7.57307244,20.7697867 L7.57307244,14.569659 C7.57307244,12.5981734 5.87774793,11 3.78653622,11 C1.69532451,11 0,12.5981734 0,14.5695475 L0,22.9919312 C0,24.8846957 1.62766766,26.4190893 3.63549112,26.4190893 L7.9559487,26.4190893 L7.9559487,32.0313729 C7.9559487,32.5663646 8.41594431,33 8.98345753,33 L12.9724912,33 C13.5400044,33 14,32.5663646 14,32.0313729 L14,23.6893829 C14,22.0769371 12.6133894,20.7697867 10.9029249,20.7697867 Z"
          id="Path"></path>
        <path
          d="M29.0000566,10 C31.2057122,10 33,8.20559902 33,6.00005658 C33,3.79440098 31.205599,2 29.0000566,2 C26.7945142,2 25,3.79451415 25,6.00005658 C24.9998868,8.20571218 26.794401,10 29.0000566,10 Z"
          id="Path"></path>
        <path
          d="M29.2133455,11 C27.1220155,11 25.4268093,12.5981815 25.4268093,14.5695656 L25.4268093,20.7697247 L22.0970751,20.7697247 C20.3866106,20.7697247 19,22.0768818 19,23.6893357 L19,32.031368 C19,32.5663624 19.4599956,33 20.0275088,33 L24.0165425,33 C24.5840557,33 25.0440513,32.5663624 25.0440513,32.031368 L25.0440513,26.419056 L29.3645089,26.419056 C31.3723323,26.419056 33,24.8846546 33,22.9918805 L33,14.5694541 C33,12.5981815 31.3046755,11 29.2133455,11 Z"
          id="Path"></path>
      </g>
    </g>
  </g>
</svg>
